# xmcd
# 
# Track frame offsets:
#     187
#     19225
#     40402
#     61440
#     87312
#     109882
#     120182
#     143522
#     163017
#     182107
#     202762
# 
# Disc length: 2993
# 
# Revision: 1
# Processed by: cddbd v1.5.2PL0 Copyright (c) Steve Scherf et al.
# Submitted via: fre:ac v1.1rc1
# 
DISCID=8d0baf0b
DTITLE=阿川泰子 - ECHOES
DYEAR=1996
DGENRE=J-Jazz
TTITLE0=Can't Find My Way Home
TTITLE1=Sunshine Superman
TTITLE2=Everybody's Got  To Learn Sometime (永遠の想い)
TTITLE3=King Of Pain
TTITLE4=Night By Night
TTITLE5=Junk
TTITLE6=Fly Linke An Eagle
TTITLE7=Can We Still Be Friends
TTITLE8=All That You Dream
TTITLE9=Same Old Scene
TTITLE10=Echoes
EXTD=YEAR: 1994
EXTT0=
EXTT1=
EXTT2=
EXTT3=
EXTT4=
EXTT5=
EXTT6=
EXTT7=
EXTT8=
EXTT9=
EXTT10=
PLAYORDER=
